<svg width="30" height="17" viewBox="0 0 30 17" fill="none" xmlns="http://www.w3.org/2000/svg">
<path opacity="0.5" fill-rule="evenodd" clip-rule="evenodd" d="M21.7 13C24.65 13 27 10.79 27 8C27 5.21 24.65 3 21.7 3H6.3C3.35 3 1 5.21 1 8C1 10.79 3.35 13 6.3 13H21.7ZM19 12.25V3.75L25.7 8.01L19 12.25Z" fill="white"/>
<path opacity="0.5" fill-rule="evenodd" clip-rule="evenodd" d="M6.3 3C3.35 3 1 5.21 1 8C1 10.79 3.35 13 6.3 13H21.7C23.0653 13.0377 24.3898 12.5326 25.3833 11.5953C26.3768 10.6581 26.9582 9.36517 27 8L26.97 7.46C26.7977 6.19691 26.1639 5.04233 25.1908 4.21881C24.2177 3.39529 22.9742 2.96112 21.7 3H6.3ZM21.7 14C25.15 14 28 11.4 28 8C28 4.6 25.15 2 21.7 2H6.3C2.85 2 0 4.6 0 8C0 11.4 2.85 14 6.3 14H21.7Z" fill="black" fill-opacity="0.3"/>
<path fill-rule="evenodd" clip-rule="evenodd" d="M30 8.5C30 10.7543 29.1045 12.9163 27.5104 14.5104C25.9163 16.1045 23.7543 17 21.5 17C19.2457 17 17.0837 16.1045 15.4896 14.5104C13.8955 12.9163 13 10.7543 13 8.5C13 6.24566 13.8955 4.08365 15.4896 2.48959C17.0837 0.895533 19.2457 0 21.5 0C23.7543 0 25.9163 0.895533 27.5104 2.48959C29.1045 4.08365 30 6.24566 30 8.5ZM25 8.5L19.5 5V12L25 8.5ZM23.14 8.5L20.5 6.82V10.18L23.14 8.5ZM21.5 16C23.4891 16 25.3968 15.2098 26.8033 13.8033C28.2098 12.3968 29 10.4891 29 8.5C29 6.51088 28.2098 4.60322 26.8033 3.1967C25.3968 1.79018 23.4891 1 21.5 1C19.5109 1 17.6032 1.79018 16.1967 3.1967C14.7902 4.60322 14 6.51088 14 8.5C14 10.4891 14.7902 12.3968 16.1967 13.8033C17.6032 15.2098 19.5109 16 21.5 16Z" fill="black" fill-opacity="0.15"/>
<path fill-rule="evenodd" clip-rule="evenodd" d="M29 8.5C29 10.4891 28.2098 12.3968 26.8033 13.8033C25.3968 15.2098 23.4891 16 21.5 16C19.5109 16 17.6032 15.2098 16.1967 13.8033C14.7902 12.3968 14 10.4891 14 8.5C14 6.51088 14.7902 4.60322 16.1967 3.1967C17.6032 1.79018 19.5109 1 21.5 1C23.4891 1 25.3968 1.79018 26.8033 3.1967C28.2098 4.60322 29 6.51088 29 8.5ZM25 8.5L19.5 12V5L25 8.5Z" fill="white"/>
</svg>
